<svg width="0" height="0" class="hidden">
  <symbol fill="none" xmlns="http://www.w3.org/2000/svg" viewBox="0 0 24 24" id="Calling">
    <path fill-rule="evenodd" clip-rule="evenodd" d="M2.48995 5.37351C2.80627 4.84875 4.55018 2.94377 5.7929 3.00127C6.16469 3.03311 6.49334 3.25698 6.76037 3.51783H6.7614C7.37351 4.11756 9.12974 6.38094 9.22834 6.85745C9.47175 8.02611 8.07806 8.69978 8.50428 9.87769C9.59089 12.5364 11.4632 14.4086 14.1232 15.494C15.3002 15.9212 15.9739 14.5287 17.1427 14.7711C17.6192 14.8707 19.8839 16.6257 20.4826 17.2388V17.2388C20.7425 17.5048 20.9684 17.8344 20.9992 18.2062C21.0454 19.5155 19.0222 21.2829 18.6278 21.5088C17.6973 22.1753 16.4833 22.163 15.0034 21.475C10.8737 19.7569 4.27391 13.282 2.52384 8.99657C1.85421 7.52496 1.80902 6.3029 2.48995 5.37351Z" stroke="#FF5722" stroke-width="1.5" stroke-linecap="round" stroke-linejoin="round"></path>
    <path opacity="0.4" d="M14.5654 2.75C18.2674 3.161 21.1904 6.081 21.6064 9.782" stroke="#200E32" stroke-width="1.5" stroke-linecap="round" stroke-linejoin="round"></path>
    <path opacity="0.4" d="M14.5654 6.29297C16.3354 6.63797 17.7184 8.02097 18.0634 9.79097" stroke="#200E32" stroke-width="1.5" stroke-linecap="round" stroke-linejoin="round"></path>
  </symbol>
  <symbol fill="none" xmlns="http://www.w3.org/2000/svg" viewBox="0 0 25 25" id="Location">
    <path fill-rule="evenodd" clip-rule="evenodd" d="M4.73901 10.8912C4.75342 6.65065 8.20278 3.22465 12.4434 3.23906C16.6839 3.25347 20.1099 6.70282 20.0955 10.9434V11.0304C20.0434 13.7869 18.5042 16.3347 16.6173 18.326C15.5381 19.4466 14.333 20.4387 13.026 21.2825C12.6765 21.5848 12.1581 21.5848 11.8086 21.2825C9.86008 20.0143 8.14995 18.4131 6.7564 16.5521C5.51436 14.9293 4.80918 12.9597 4.73901 10.9173L4.73901 10.8912Z" stroke="#FF5722" stroke-width="1.5" stroke-linecap="round" stroke-linejoin="round"></path>
    <circle opacity="0.4" cx="12.4172" cy="11.039" r="2.46087" stroke="#FF5722" stroke-width="1.5" stroke-linecap="round" stroke-linejoin="round"></circle>
  </symbol>
  <symbol fill="none" xmlns="http://www.w3.org/2000/svg" viewBox="0 0 25 25" id="Message">
    <path opacity="0.4" d="M17.7678 9.06104L13.5024 12.4953C12.6952 13.1282 11.5636 13.1282 10.7564 12.4953L6.45435 9.06104" stroke="#FF5722" stroke-width="1.5" stroke-linecap="round" stroke-linejoin="round"></path>
    <path fill-rule="evenodd" clip-rule="evenodd" d="M7.38787 3.5H16.8158C18.1752 3.51525 19.469 4.08993 20.396 5.0902C21.323 6.09048 21.8022 7.42903 21.722 8.79412V15.322C21.8022 16.6871 21.323 18.0256 20.396 19.0259C19.469 20.0262 18.1752 20.6009 16.8158 20.6161H7.38787C4.46796 20.6161 2.5 18.2407 2.5 15.322V8.79412C2.5 5.87545 4.46796 3.5 7.38787 3.5Z" stroke="#FF5722" stroke-width="1.5" stroke-linecap="round" stroke-linejoin="round"></path>
  </symbol>
    <symbol fill="none" xmlns="http://www.w3.org/2000/svg" viewBox="0 0 24 24" id="linkedin">
    <path d="M19 3C19.5304 3 20.0391 3.21071 20.4142 3.58579C20.7893 3.96086 21 4.46957 21 5V19C21 19.5304 20.7893 20.0391 20.4142 20.4142C20.0391 20.7893 19.5304 21 19 21H5C4.46957 21 3.96086 20.7893 3.58579 20.4142C3.21071 20.0391 3 19.5304 3 19V5C3 4.46957 3.21071 3.96086 3.58579 3.58579C3.96086 3.21071 4.46957 3 5 3H19ZM18.5 18.5V13.2C18.5 12.3354 18.1565 11.5062 17.5452 10.8948C16.9338 10.2835 16.1046 9.94 15.24 9.94C14.39 9.94 13.4 10.46 12.92 11.24V10.13H10.13V18.5H12.92V13.57C12.92 12.8 13.54 12.17 14.31 12.17C14.6813 12.17 15.0374 12.3175 15.2999 12.5801C15.5625 12.8426 15.71 13.1987 15.71 13.57V18.5H18.5ZM6.88 8.56C7.32556 8.56 7.75288 8.383 8.06794 8.06794C8.383 7.75288 8.56 7.32556 8.56 6.88C8.56 5.95 7.81 5.19 6.88 5.19C6.43178 5.19 6.00193 5.36805 5.68499 5.68499C5.36805 6.00193 5.19 6.43178 5.19 6.88C5.19 7.81 5.95 8.56 6.88 8.56ZM8.27 18.5V10.13H5.5V18.5H8.27Z" fill="#FF5722"></path>
  </symbol>
  <symbol fill="none" xmlns="http://www.w3.org/2000/svg" viewBox="0 0 24 24" id="telegram">
    <path d="M12 2C6.48 2 2 6.48 2 12C2 17.52 6.48 22 12 22C17.52 22 22 17.52 22 12C22 6.48 17.52 2 12 2ZM16.64 8.8C16.49 10.38 15.84 14.22 15.51 15.99C15.37 16.74 15.09 16.99 14.83 17.02C14.25 17.07 13.81 16.64 13.25 16.27C12.37 15.69 11.87 15.33 11.02 14.77C10.03 14.12 10.67 13.76 11.24 13.18C11.39 13.03 13.95 10.7 14 10.49C14.0069 10.4582 14.006 10.4252 13.9973 10.3938C13.9886 10.3624 13.9724 10.3337 13.95 10.31C13.89 10.26 13.81 10.28 13.74 10.29C13.65 10.31 12.25 11.24 9.52 13.08C9.12 13.35 8.76 13.49 8.44 13.48C8.08 13.47 7.4 13.28 6.89 13.11C6.26 12.91 5.77 12.8 5.81 12.45C5.83 12.27 6.08 12.09 6.55 11.9C9.47 10.63 11.41 9.79 12.38 9.39C15.16 8.23 15.73 8.03 16.11 8.03C16.19 8.03 16.38 8.05 16.5 8.15C16.6 8.23 16.63 8.34 16.64 8.42C16.63 8.48 16.65 8.66 16.64 8.8Z" fill="#FF5722"></path>
  </symbol>
  <symbol fill="none" xmlns="http://www.w3.org/2000/svg" viewBox="0 0 24 24" id="tweeter">
    <g clip-path="url(#clip0_2_4)">
      <path d="M19.753 4.659C19.8395 4.56011 19.9056 4.44516 19.9477 4.32071C19.9897 4.19626 20.0069 4.06475 19.9981 3.93368C19.9893 3.80261 19.9548 3.67455 19.8965 3.55682C19.8383 3.43908 19.7574 3.33398 19.6585 3.2475C19.5596 3.16102 19.4447 3.09487 19.3202 3.05282C19.1958 3.01077 19.0642 2.99364 18.9332 3.00242C18.8021 3.01119 18.6741 3.0457 18.5563 3.10396C18.4386 3.16223 18.3335 3.24311 18.247 3.342L13.137 9.182L8.8 3.4C8.70685 3.2758 8.58607 3.175 8.44721 3.10557C8.30836 3.03614 8.15525 3 8 3H4C3.81429 3 3.63225 3.05171 3.47427 3.14935C3.31629 3.24698 3.18863 3.38668 3.10557 3.55279C3.02252 3.71889 2.98736 3.90484 3.00404 4.08981C3.02072 4.27477 3.08857 4.45143 3.2 4.6L9.637 13.182L4.247 19.342C4.16053 19.4409 4.09437 19.5558 4.05232 19.6803C4.01027 19.8047 3.99314 19.9363 4.00192 20.0673C4.01069 20.1984 4.0452 20.3264 4.10347 20.4442C4.16173 20.5619 4.24261 20.667 4.3415 20.7535C4.44039 20.84 4.55534 20.9061 4.67979 20.9482C4.80424 20.9902 4.93575 21.0074 5.06682 20.9986C5.19789 20.9898 5.32595 20.9553 5.44368 20.897C5.56142 20.8388 5.66652 20.7579 5.753 20.659L10.863 14.818L15.2 20.6C15.2931 20.7242 15.4139 20.825 15.5528 20.8944C15.6916 20.9639 15.8448 21 16 21H20C20.1857 21 20.3678 20.9483 20.5257 20.8507C20.6837 20.753 20.8114 20.6133 20.8944 20.4472C20.9775 20.2811 21.0126 20.0952 20.996 19.9102C20.9793 19.7252 20.9114 19.5486 20.8 19.4L14.363 10.818L19.753 4.659Z" fill="#FF5722"></path>
    </g>
    <defs>
      <clipPath id="clip0_2_4">
        <rect width="24" height="24" fill="white"></rect>
      </clipPath>
    </defs>
  </symbol>
</svg>